<svg width="30" height="20" viewBox="0 0 30 20" fill="none" xmlns="http://www.w3.org/2000/svg">
<g clip-path="url(#clip0_32_5114)">
<path d="M23.0581 4.99121L24.0842 6.09717L25.4531 5.46313L24.7183 6.78072L25.7444 7.88674L24.2642 7.59506L23.5295 8.91272L23.3494 7.41483L21.8691 7.12315L23.2381 6.48916L23.0581 4.99121Z" fill="white"/>
<path d="M0 0.000732422H30V20.0003H0V0.000732422Z" fill="white"/>
<path d="M7.5 -0.00012207H30V20.0001H7.5V-0.00012207Z" fill="#01411C"/>
<path d="M21.2046 12.5074C19.3861 13.8214 16.8465 13.4124 15.5325 11.5938C14.2184 9.77514 14.6275 7.23563 16.4462 5.92166C17.0132 5.51198 17.6503 5.26981 18.2985 5.18555C17.0514 4.99905 15.7334 5.28006 14.6306 6.07682C12.3924 7.69413 11.8889 10.8196 13.5062 13.058C15.1234 15.2962 18.249 15.7997 20.4873 14.1823C21.5901 13.3856 22.2707 12.2225 22.4851 10.9799C22.2016 11.5688 21.7717 12.0976 21.2046 12.5074ZM21.1268 5.13018L22.1512 6.2342L23.5177 5.60127L22.7842 6.91653L23.8086 8.02067L22.3309 7.72958L21.5974 9.04501L21.4177 7.54963L19.9399 7.25848L21.3065 6.62555L21.1268 5.13018Z" fill="white"/>
</g>
<defs>
<clipPath id="clip0_32_5114">
<rect width="30" height="20" fill="white"/>
</clipPath>
</defs>
</svg>
