<svg width="37" height="38" viewBox="0 0 37 38" fill="none" xmlns="http://www.w3.org/2000/svg">
<g clip-path="url(#clip0_27_3605)">
<path d="M18.2647 0C8.17749 0 0 8.34325 0 18.635C0 27.374 5.89732 34.7073 13.8527 36.7213V24.3298H10.0865V18.635H13.8527V16.1811C13.8527 9.83852 16.6662 6.89866 22.7696 6.89866C23.9268 6.89866 25.9235 7.13048 26.7403 7.36156V12.5234C26.3093 12.4772 25.5604 12.4541 24.6304 12.4541C21.6357 12.4541 20.4784 13.6117 20.4784 16.6209V18.635H26.4444L25.4194 24.3298H20.4784V37.1335C29.5224 36.0192 36.5302 28.1627 36.5302 18.635C36.5295 8.34325 28.352 0 18.2647 0Z" fill="white"/>
</g>
<defs>
<clipPath id="clip0_27_3605">
<rect width="36.5295" height="37.2699" fill="white"/>
</clipPath>
</defs>
</svg>
