<svg width="38" height="38" viewBox="0 0 38 38" fill="none" xmlns="http://www.w3.org/2000/svg">
<g clip-path="url(#clip0_27_3605)">
<path d="M18.635 0C8.34325 0 0 8.34325 0 18.635C0 27.374 6.01686 34.7073 14.1335 36.7213V24.3298H10.291V18.635H14.1335V16.1811C14.1335 9.83852 17.004 6.89866 23.2311 6.89866C24.4118 6.89866 26.449 7.13048 27.2823 7.36156V12.5234C26.8426 12.4772 26.0785 12.4541 25.1296 12.4541C22.0742 12.4541 20.8935 13.6117 20.8935 16.6209V18.635H26.9805L25.9347 24.3298H20.8935V37.1335C30.1208 36.0192 37.2707 28.1627 37.2707 18.635C37.2699 8.34325 28.9267 0 18.635 0Z" fill="#3E4C52"/>
</g>
<defs>
<clipPath id="clip0_27_3605">
<rect width="37.2699" height="37.2699" fill="white"/>
</clipPath>
</defs>
</svg>
