<svg width="37" height="38" viewBox="0 0 37 38" fill="none" xmlns="http://www.w3.org/2000/svg">
<g clip-path="url(#clip0_27_3601)">
<path d="M18.2637 15.2468V22.4637H28.0934C27.6618 24.7845 26.3665 26.7498 24.4238 28.0711L30.3515 32.7638C33.8052 29.5113 35.7977 24.7339 35.7977 19.0587C35.7977 17.7373 35.6815 16.4667 35.4656 15.247L18.2637 15.2468Z" fill="white"/>
<path d="M8.02821 22.1819L6.69129 23.226L1.95898 26.9868C4.96436 33.0686 11.1241 37.27 18.2639 37.27C23.1952 37.27 27.3297 35.6097 30.3517 32.7638L24.424 28.0711C22.7968 29.1892 20.7212 29.8669 18.2639 29.8669C13.5151 29.8669 9.48036 26.5973 8.03568 22.1926L8.02821 22.1819Z" fill="#D2D2D2"/>
<path d="M1.95917 10.2832C0.713911 12.7903 0 15.6195 0 18.6349C0 21.6504 0.713911 24.4795 1.95917 26.9867C1.95917 27.0035 8.03644 22.1755 8.03644 22.1755C7.67115 21.0574 7.45524 19.8716 7.45524 18.6347C7.45524 17.3979 7.67115 16.2121 8.03644 15.094L1.95917 10.2832Z" fill="#B8B8B8"/>
<path d="M18.2643 7.4201C20.9542 7.4201 23.3452 8.36876 25.2547 10.1984L30.485 4.8621C27.3135 1.84667 23.1958 0 18.2643 0C11.1245 0 4.96436 4.18439 1.95898 10.2831L8.03608 15.0943C9.48057 10.6897 13.5155 7.4201 18.2643 7.4201Z" fill="white"/>
</g>
<defs>
<clipPath id="clip0_27_3601">
<rect width="36.5295" height="37.2699" fill="white"/>
</clipPath>
</defs>
</svg>
