<svg width="38" height="38" viewBox="0 0 38 38" fill="none" xmlns="http://www.w3.org/2000/svg">
<g clip-path="url(#clip0_27_3601)">
<path d="M18.6348 15.2466V22.4634H28.6637C28.2233 24.7843 26.9018 26.7495 24.9198 28.0709L30.9676 32.7635C34.4913 29.511 36.5242 24.7336 36.5242 19.0585C36.5242 17.7371 36.4057 16.4664 36.1854 15.2468L18.6348 15.2466Z" fill="#3E4C52"/>
<path d="M8.1903 22.1816L6.82628 23.2258L1.99805 26.9866C5.06434 33.0683 11.3489 37.2697 18.6335 37.2697C23.6648 37.2697 27.883 35.6095 30.9663 32.7635L24.9184 28.0708C23.2582 29.1889 21.1406 29.8666 18.6335 29.8666C13.7884 29.8666 9.67188 26.5971 8.19792 22.1924L8.1903 22.1816Z" fill="#516269"/>
<path d="M1.99888 10.2832C0.728382 12.7903 0 15.6195 0 18.6349C0 21.6504 0.728382 24.4795 1.99888 26.9867C1.99888 27.0035 8.19935 22.1755 8.19935 22.1755C7.82665 21.0574 7.60636 19.8716 7.60636 18.6347C7.60636 17.3979 7.82665 16.2121 8.19935 15.094L1.99888 10.2832Z" fill="#708A96"/>
<path d="M18.6338 7.4201C21.3783 7.4201 23.8177 8.36876 25.7659 10.1984L31.1023 4.8621C27.8666 1.84667 23.6654 0 18.6338 0C11.3493 0 5.06434 4.18439 1.99805 10.2831L8.19832 15.0943C9.67209 10.6897 13.7888 7.4201 18.6338 7.4201Z" fill="#3E4C52"/>
</g>
<defs>
<clipPath id="clip0_27_3601">
<rect width="37.2699" height="37.2699" fill="white"/>
</clipPath>
</defs>
</svg>
