<svg width="38" height="38" viewBox="0 0 38 38" fill="none" xmlns="http://www.w3.org/2000/svg">
<g clip-path="url(#clip0_27_3603)">
<path d="M18.635 3.35575C23.614 3.35575 24.2036 3.37759 26.1617 3.46494C27.9816 3.54501 28.9643 3.85074 29.6194 4.10552C30.4856 4.44036 31.1117 4.848 31.7595 5.49586C32.4146 6.15099 32.815 6.76973 33.1499 7.63597C33.4046 8.2911 33.7104 9.28109 33.7904 11.0936C33.8778 13.059 33.8996 13.6487 33.8996 18.6204C33.8996 23.5994 33.8778 24.1891 33.7904 26.1472C33.7104 27.967 33.4046 28.9497 33.1499 29.6048C32.815 30.4711 32.4074 31.0971 31.7595 31.745C31.1044 32.4001 30.4856 32.8005 29.6194 33.1353C28.9643 33.3901 27.9743 33.6958 26.1617 33.7759C24.1963 33.8632 23.6067 33.8851 18.635 33.8851C13.6559 33.8851 13.0663 33.8632 11.1082 33.7759C9.28837 33.6958 8.30566 33.3901 7.65053 33.1353C6.78429 32.8005 6.15827 32.3928 5.51042 31.745C4.85528 31.0898 4.45492 30.4711 4.12007 29.6048C3.8653 28.9497 3.55957 27.9597 3.4795 26.1472C3.39215 24.1818 3.37031 23.5922 3.37031 18.6204C3.37031 13.6414 3.39215 13.0518 3.4795 11.0936C3.55957 9.27381 3.8653 8.2911 4.12007 7.63597C4.45492 6.76973 4.86256 6.14371 5.51042 5.49586C6.16555 4.84072 6.78429 4.44036 7.65053 4.10552C8.30566 3.85074 9.29565 3.54501 11.1082 3.46494C13.0663 3.37759 13.6559 3.35575 18.635 3.35575ZM18.635 0C13.5759 0 12.9426 0.0218378 10.9553 0.109189C8.97536 0.196541 7.61413 0.516829 6.43489 0.975424C5.20469 1.45586 4.16375 2.08915 3.13009 3.13009C2.08915 4.16375 1.45586 5.20469 0.975424 6.42761C0.516829 7.61413 0.196541 8.96808 0.109189 10.948C0.0218379 12.9426 0 13.5759 0 18.635C0 23.6941 0.0218379 24.3274 0.109189 26.3146C0.196541 28.2946 0.516829 29.6558 0.975424 30.835C1.45586 32.0652 2.08915 33.1062 3.13009 34.1398C4.16375 35.1735 5.20469 35.8141 6.42761 36.2872C7.61413 36.7458 8.96808 37.0661 10.948 37.1535C12.9353 37.2408 13.5686 37.2626 18.6277 37.2626C23.6868 37.2626 24.3201 37.2408 26.3073 37.1535C28.2873 37.0661 29.6485 36.7458 30.8278 36.2872C32.0507 35.8141 33.0916 35.1735 34.1253 34.1398C35.1589 33.1062 35.7995 32.0652 36.2727 30.8423C36.7313 29.6558 37.0516 28.3019 37.1389 26.3219C37.2263 24.3346 37.2481 23.7013 37.2481 18.6422C37.2481 13.5831 37.2263 12.9498 37.1389 10.9626C37.0516 8.98264 36.7313 7.62141 36.2727 6.44217C35.8141 5.20469 35.1808 4.16375 34.1398 3.13009C33.1062 2.09643 32.0652 1.45586 30.8423 0.982703C29.6558 0.524108 28.3019 0.20382 26.3219 0.116469C24.3274 0.0218379 23.6941 0 18.635 0Z" fill="#3E4C52"/>
<path d="M18.6348 9.0625C13.35 9.0625 9.0625 13.35 9.0625 18.6348C9.0625 23.9195 13.35 28.207 18.6348 28.207C23.9195 28.207 28.207 23.9195 28.207 18.6348C28.207 13.35 23.9195 9.0625 18.6348 9.0625ZM18.6348 24.844C15.2062 24.844 12.4255 22.0633 12.4255 18.6348C12.4255 15.2062 15.2062 12.4255 18.6348 12.4255C22.0633 12.4255 24.844 15.2062 24.844 18.6348C24.844 22.0633 22.0633 24.844 18.6348 24.844Z" fill="#3E4C52"/>
<path d="M30.821 8.68396C30.821 9.92144 29.8165 10.9187 28.5863 10.9187C27.3488 10.9187 26.3516 9.91416 26.3516 8.68396C26.3516 7.44648 27.3561 6.44922 28.5863 6.44922C29.8165 6.44922 30.821 7.45376 30.821 8.68396Z" fill="white"/>
</g>
<defs>
<clipPath id="clip0_27_3603">
<rect width="37.2699" height="37.2699" fill="white"/>
</clipPath>
</defs>
</svg>
