<svg width="37" height="38" viewBox="0 0 37 38" fill="none" xmlns="http://www.w3.org/2000/svg">
<g clip-path="url(#clip0_27_3603)">
<path d="M18.2647 3.35575C23.1448 3.35575 23.7228 3.37759 25.642 3.46494C27.4256 3.54501 28.3888 3.85074 29.0309 4.10552C29.88 4.44036 30.4935 4.848 31.1285 5.49586C31.7707 6.15099 32.1631 6.76973 32.4913 7.63597C32.741 8.2911 33.0406 9.28109 33.1191 11.0936C33.2047 13.059 33.2261 13.6487 33.2261 18.6204C33.2261 23.5994 33.2047 24.1891 33.1191 26.1472C33.0406 27.967 32.741 28.9497 32.4913 29.6048C32.1631 30.4711 31.7635 31.0971 31.1285 31.745C30.4864 32.4001 29.88 32.8005 29.0309 33.1353C28.3888 33.3901 27.4185 33.6958 25.642 33.7759C23.7156 33.8632 23.1377 33.8851 18.2647 33.8851C13.3846 33.8851 12.8067 33.8632 10.8875 33.7759C9.10383 33.6958 8.14065 33.3901 7.49853 33.1353C6.64951 32.8005 6.03592 32.3928 5.40094 31.745C4.75882 31.0898 4.36641 30.4711 4.03822 29.6048C3.78851 28.9497 3.48885 27.9597 3.41037 26.1472C3.32475 24.1818 3.30335 23.5922 3.30335 18.6204C3.30335 13.6414 3.32475 13.0518 3.41037 11.0936C3.48885 9.27381 3.78851 8.2911 4.03822 7.63597C4.36641 6.76973 4.76595 6.14371 5.40094 5.49586C6.04306 4.84072 6.64951 4.44036 7.49853 4.10552C8.14065 3.85074 9.11096 3.54501 10.8875 3.46494C12.8067 3.37759 13.3846 3.35575 18.2647 3.35575ZM18.2647 0C13.3061 0 12.6854 0.0218378 10.7377 0.109189C8.79704 0.196541 7.46286 0.516829 6.30704 0.975424C5.10128 1.45586 4.08103 2.08915 3.0679 3.13009C2.04765 4.16375 1.42693 5.20469 0.956045 6.42761C0.506561 7.61413 0.192636 8.96808 0.10702 10.948C0.021404 12.9426 0 13.5759 0 18.635C0 23.6941 0.021404 24.3274 0.10702 26.3146C0.192636 28.2946 0.506561 29.6558 0.956045 30.835C1.42693 32.0652 2.04765 33.1062 3.0679 34.1398C4.08103 35.1735 5.10128 35.8141 6.29991 36.2872C7.46286 36.7458 8.7899 37.0661 10.7305 37.1535C12.6783 37.2408 13.299 37.2626 18.2576 37.2626C23.2162 37.2626 23.8369 37.2408 25.7847 37.1535C27.7253 37.0661 29.0595 36.7458 30.2153 36.2872C31.4139 35.8141 32.4342 35.1735 33.4473 34.1398C34.4604 33.1062 35.0883 32.0652 35.552 30.8423C36.0015 29.6558 36.3154 28.3019 36.401 26.3219C36.4867 24.3346 36.5081 23.7013 36.5081 18.6422C36.5081 13.5831 36.4867 12.9498 36.401 10.9626C36.3154 8.98264 36.0015 7.62141 35.552 6.44217C35.1025 5.20469 34.4818 4.16375 33.4616 3.13009C32.4484 2.09643 31.4282 1.45586 30.2296 0.982703C29.0666 0.524108 27.7396 0.20382 25.7989 0.116469C23.844 0.0218379 23.2233 0 18.2647 0Z" fill="white"/>
<path d="M18.2649 9.06274C13.0851 9.06274 8.88281 13.3502 8.88281 18.635C8.88281 23.9198 13.0851 28.2073 18.2649 28.2073C23.4447 28.2073 27.647 23.9198 27.647 18.635C27.647 13.3502 23.4447 9.06274 18.2649 9.06274ZM18.2649 24.8442C14.9045 24.8442 12.179 22.0635 12.179 18.635C12.179 15.2065 14.9045 12.4258 18.2649 12.4258C21.6253 12.4258 24.3508 15.2065 24.3508 18.635C24.3508 22.0635 21.6253 24.8442 18.2649 24.8442Z" fill="white"/>
<path d="M30.2088 8.68421C30.2088 9.92169 29.2242 10.9189 28.0185 10.9189C26.8056 10.9189 25.8281 9.91441 25.8281 8.68421C25.8281 7.44673 26.8127 6.44946 28.0185 6.44946C29.2242 6.44946 30.2088 7.45401 30.2088 8.68421Z" fill="white"/>
</g>
<defs>
<clipPath id="clip0_27_3603">
<rect width="36.5295" height="37.2699" fill="white"/>
</clipPath>
</defs>
</svg>
