<svg width="37" height="38" viewBox="0 0 37 38" fill="none" xmlns="http://www.w3.org/2000/svg">
<g clip-path="url(#clip0_27_3602)">
<path d="M33.8254 0H2.6969C1.20576 0 0 1.20108 0 2.68606V34.5766C0 36.0616 1.20576 37.2699 2.6969 37.2699H33.8254C35.3166 37.2699 36.5295 36.0616 36.5295 34.5839V2.68606C36.5295 1.20108 35.3166 0 33.8254 0ZM10.8376 31.7595H5.41521V13.9689H10.8376V31.7595ZM8.12638 11.5449C6.38552 11.5449 4.97999 10.1109 4.97999 8.34206C4.97999 6.57319 6.38552 5.13917 8.12638 5.13917C9.8601 5.13917 11.2656 6.57319 11.2656 8.34206C11.2656 10.1036 9.8601 11.5449 8.12638 11.5449ZM31.1285 31.7595H25.7133V23.1117C25.7133 21.0517 25.6776 18.3947 22.8951 18.3947C20.0769 18.3947 19.6489 20.644 19.6489 22.9661V31.7595H14.2408V13.9689H19.4348V16.4002H19.5062C20.2268 15.0026 21.9962 13.5249 24.6289 13.5249C30.1154 13.5249 31.1285 17.2082 31.1285 21.998V31.7595Z" fill="white"/>
</g>
<defs>
<clipPath id="clip0_27_3602">
<rect width="36.5295" height="37.2699" fill="white"/>
</clipPath>
</defs>
</svg>
