<svg width="38" height="38" viewBox="0 0 38 38" fill="none" xmlns="http://www.w3.org/2000/svg">
<g clip-path="url(#clip0_27_3602)">
<path d="M34.5111 0H2.75157C1.2302 0 0 1.20108 0 2.68606V34.5766C0 36.0616 1.2302 37.2699 2.75157 37.2699H34.5111C36.0325 37.2699 37.2699 36.0616 37.2699 34.5839V2.68606C37.2699 1.20108 36.0325 0 34.5111 0ZM11.0572 31.7595H5.52498V13.9689H11.0572V31.7595ZM8.2911 11.5449C6.51496 11.5449 5.08094 10.1109 5.08094 8.34206C5.08094 6.57319 6.51496 5.13917 8.2911 5.13917C10.06 5.13917 11.494 6.57319 11.494 8.34206C11.494 10.1036 10.06 11.5449 8.2911 11.5449ZM31.7595 31.7595H26.2345V23.1117C26.2345 21.0517 26.1981 18.3947 23.3592 18.3947C20.4839 18.3947 20.0471 20.644 20.0471 22.9661V31.7595H14.5295V13.9689H19.8288V16.4002H19.9016C20.6368 15.0026 22.442 13.5249 25.1281 13.5249C30.7259 13.5249 31.7595 17.2082 31.7595 21.998V31.7595Z" fill="#3E4C52"/>
</g>
<defs>
<clipPath id="clip0_27_3602">
<rect width="37.2699" height="37.2699" fill="white"/>
</clipPath>
</defs>
</svg>
