<svg width="317" height="81" viewBox="0 0 317 81" fill="none" xmlns="http://www.w3.org/2000/svg">
<g clip-path="url(#clip0_238_22041)">
<path fill-rule="evenodd" clip-rule="evenodd" d="M300.613 48.6162V44.55H302.016C303.001 44.55 303.765 44.3025 304.306 43.8048C304.898 43.3629 305.022 42.6204 304.673 41.5881L297.806 21.9708H303.495L307.482 35.8848L310.954 23.7429C311.249 22.5558 312.037 21.9708 313.32 21.9708H316.864L309.33 44.4006C308.74 46.026 308.002 47.1879 307.113 47.88C306.229 48.4704 304.775 48.7683 302.757 48.7683H301.722C301.57 48.7179 301.376 48.6675 301.129 48.6162H300.613ZM282.717 31.9581C282.717 35.37 283.702 37.2681 285.672 37.665C287.643 38.0052 289.093 37.5381 290.033 36.2529C290.474 35.7129 290.794 34.8723 290.99 33.7383C291.187 32.5548 291.187 31.3929 290.99 30.2562C290.844 29.1204 290.452 28.1079 289.809 27.225C289.169 26.3358 288.237 25.8885 287.002 25.8885C285.328 25.8885 284.196 26.5077 283.604 27.7425C283.012 28.9737 282.717 30.3804 282.717 31.9581ZM291.142 40.4748V39.2175C290.252 40.5981 289.048 41.4585 287.519 41.8077C286.042 42.1533 284.567 42.03 283.088 41.436C281.609 40.8429 280.329 39.7629 279.246 38.1798C278.213 36.5481 277.694 34.4277 277.694 31.8123C277.694 28.7523 278.387 26.2854 279.765 24.4125C281.19 22.4883 283.455 21.5181 286.562 21.5181C288.922 21.5181 291.116 22.1625 293.137 23.4477C295.155 24.7275 296.162 27.0981 296.162 30.5577V40.9923C296.162 44.451 295.155 46.7937 293.137 48.0258C291.116 49.311 288.922 49.9527 286.562 49.9527C282.03 49.9527 279.224 47.8287 278.137 43.5852H283.531C283.924 44.2737 284.516 44.7948 285.305 45.1377C286.141 45.5373 286.955 45.6354 287.743 45.4356C288.579 45.2862 289.317 44.82 289.958 44.0262C290.648 43.2387 291.041 42.0552 291.142 40.4748ZM265.784 41.6556V32.1102C265.784 30.1833 266.053 28.5777 266.598 27.2952C267.19 25.9623 267.976 24.9048 268.961 24.111C269.898 23.3712 270.978 22.8312 272.21 22.4883C273.493 22.14 274.798 21.9708 276.126 21.9708H276.866V27.225H275.168C273.737 27.225 272.676 27.5679 271.992 28.26C271.301 28.9485 270.953 30.0375 270.953 31.5198V41.6556H265.784ZM251.363 29.8125H258.894C258.797 28.476 258.451 27.4923 257.862 26.8506C257.222 26.1612 256.31 25.8183 255.128 25.8129C254.045 25.8129 253.159 26.1612 252.471 26.8506C251.78 27.5454 251.41 28.53 251.363 29.8125ZM260.228 35.5887H263.918C263.376 37.665 262.344 39.2427 260.817 40.3281C259.29 41.4585 257.37 42.03 255.055 42.03C252.249 42.03 250.054 41.1156 248.48 39.285C246.906 37.5102 246.117 34.9731 246.117 31.6629C246.117 28.5102 246.881 26.0406 248.405 24.2604C249.984 22.4352 252.174 21.5235 254.98 21.5181C257.938 21.5181 260.228 22.41 261.852 24.1848C263.427 26.0154 264.215 28.5552 264.215 31.8123V32.625C264.215 32.8725 264.19 33.0462 264.142 33.1479H251.363C251.41 34.6752 251.78 35.811 252.471 36.5481C253.111 37.341 254.07 37.7352 255.35 37.7352C256.19 37.7352 256.902 37.5633 257.492 37.2177C257.64 37.1673 257.766 37.0908 257.862 36.9954L258.305 36.5481C258.356 36.4023 258.527 36.2079 258.824 35.9604C259.169 35.7129 259.633 35.5923 260.228 35.5887ZM244.992 41.6556H242.405C241.664 41.6556 241.052 41.436 240.558 40.9923C240.115 40.5 239.893 39.8835 239.893 39.1437V29.0754C239.893 27.891 239.525 27.0252 238.79 26.4825C238.095 25.9398 237.309 25.6662 236.422 25.6662C235.535 25.6662 234.749 25.9398 234.059 26.4825C233.368 27.0252 233.023 27.891 233.023 29.0754V41.6556H227.851V30.1077C227.851 26.7525 228.713 24.5106 230.439 23.3712C232.213 22.2381 234.157 21.6225 236.273 21.5181C238.439 21.5181 240.437 22.0887 242.259 23.2254C244.08 24.3585 244.992 26.6535 244.992 30.1077V41.6556ZM207.744 41.6556V18.8577C207.744 18.1179 207.989 17.4987 208.482 17.0073C209.024 16.4673 209.663 16.191 210.401 16.191H226.209V20.5587H212.913V26.0406H222.814V27.7425C222.814 28.476 222.542 29.1204 222 29.6658C221.506 30.1635 220.891 30.4056 220.157 30.4056H212.913V36.9198H226.209V41.6556H207.744ZM191.675 16.191H194.339C195.026 16.191 195.618 16.4412 196.11 16.9335C196.6 17.3754 196.847 17.946 196.85 18.6354V41.6556H191.675V16.191ZM177.035 29.8125H184.566C184.469 28.476 184.126 27.4923 183.534 26.8506C182.894 26.1612 181.982 25.8183 180.798 25.8129C179.714 25.8129 178.833 26.1612 178.14 26.8506C177.45 27.5454 177.08 28.53 177.035 29.8125ZM185.897 35.5887H189.593C189.048 37.665 188.016 39.2427 186.489 40.3281C184.962 41.4585 183.04 42.03 180.725 42.03C177.921 42.03 175.73 41.1156 174.153 39.285C172.575 37.5102 171.787 34.9731 171.787 31.6629C171.787 28.5102 172.55 26.0406 174.077 24.2604C175.657 22.4352 177.848 21.5235 180.655 21.5181C183.61 21.5181 185.897 22.41 187.522 24.1848C189.096 26.0154 189.887 28.5552 189.887 31.8123V32.625C189.887 32.8725 189.862 33.0462 189.812 33.1479H177.035C177.08 34.6752 177.45 35.811 178.14 36.5481C178.781 37.341 179.743 37.7352 181.023 37.7352C181.859 37.7352 182.575 37.5633 183.164 37.2177C183.313 37.1673 183.436 37.0908 183.534 36.9954L183.977 36.5481C184.025 36.4023 184.196 36.2079 184.494 35.9604C184.836 35.7129 185.307 35.5923 185.897 35.5887ZM170.664 41.6556H168.077C167.339 41.6556 166.725 41.436 166.228 40.9923C165.79 40.5 165.568 39.8835 165.568 39.1437V29.0754C165.568 27.891 165.198 27.0252 164.457 26.4825C163.767 25.9398 162.981 25.6662 162.094 25.6662C161.207 25.6662 160.419 25.9398 159.728 26.4825C159.04 27.0252 158.698 27.891 158.698 29.0754V41.6556H153.526V30.1077C153.526 26.7525 154.385 24.5106 156.111 23.3712C157.885 22.2381 159.83 21.6225 161.943 21.5181C164.114 21.5181 166.107 22.0887 167.928 23.2254C169.749 24.3585 170.662 26.6535 170.664 30.1077V41.6556ZM139.102 29.8125H146.64C146.542 28.476 146.193 27.4923 145.601 26.8506C144.961 26.1612 144.052 25.8183 142.871 25.8129C141.788 25.8129 140.9 26.1612 140.211 26.8506C139.52 27.5454 139.153 28.53 139.102 29.8125ZM147.967 35.5887H151.66C151.115 37.665 150.083 39.2427 148.56 40.3281C147.033 41.4585 145.11 42.03 142.795 42.03C139.989 42.03 137.797 41.1156 136.22 39.285C134.646 37.5102 133.86 34.9731 133.857 31.6629C133.857 28.5102 134.621 26.0406 136.147 24.2604C137.724 22.4352 139.913 21.5235 142.722 21.5181C145.677 21.5181 147.967 22.41 149.592 24.1848C151.166 26.0154 151.955 28.5552 151.955 31.8123V32.625C151.955 32.8725 151.932 33.0462 151.882 33.1479H139.102C139.153 34.6752 139.52 35.811 140.211 36.5481C140.847 37.341 141.81 37.7352 143.092 37.7352C143.926 37.7352 144.644 37.5633 145.231 37.2177C145.382 37.1673 145.506 37.0908 145.601 36.9954L146.045 36.5481C146.095 36.4023 146.27 36.2079 146.564 35.9604C146.906 35.7129 147.378 35.5923 147.967 35.5887ZM128.228 38.6262C127.338 39.9087 126.28 40.8429 125.048 41.436C123.768 41.9823 122.365 42.2523 120.841 42.2523C117.193 42.2523 114.311 41.0427 112.195 38.6262C110.028 36.2529 108.948 33.0012 108.945 28.8531C108.945 24.7554 110.003 21.5235 112.122 19.1529C114.339 16.6833 117.269 15.4575 120.911 15.4512C124.063 15.4512 126.673 16.2198 128.741 17.7498C130.762 19.3752 131.969 21.4983 132.361 24.111H128.817C127.781 24.111 127.021 23.6448 126.527 22.7079C126.179 22.1148 125.688 21.5748 125.048 21.0762C124.063 20.3877 122.758 20.0412 121.133 20.0412C119.015 20.0412 117.342 20.8098 116.11 22.3398C114.878 23.9652 114.266 26.1387 114.266 28.8531C114.266 31.6152 114.906 33.7887 116.186 35.37C117.412 36.8937 119.163 37.665 121.43 37.665C123.103 37.665 124.484 37.1952 125.567 36.2529C126.651 35.2656 127.338 33.9129 127.632 32.1804H124.531C123.793 32.1804 123.151 31.9383 122.61 31.4433C122.118 30.9006 121.871 30.2598 121.871 29.5137V27.8154H132.437V41.6556H131.034C129.65 41.6556 128.789 40.9662 128.447 39.5856L128.228 38.6262Z" fill="#356B80"/>
<path d="M28.5563 2.18793C27.1141 3.37503 25.3405 4.79793 23.4376 6.48273C11.1213 17.4006 4.80644 30.3552 9.07471 47.5173C13.352 64.7208 30.7367 75.1923 47.9032 70.8975C64.9403 66.6423 75.1131 49.7133 71.4007 32.6754C58.8671 26.8254 36.6699 41.5827 28.9828 47.9277C28.9828 47.9277 50.0809 15.1983 77.9724 25.281L78.2256 25.3935L78.2867 25.6635C78.7806 27.6462 79.3418 29.9529 79.3418 29.9529C84.7389 51.6456 71.5686 73.6137 49.9264 79.0227C28.2815 84.4308 5.19079 71.4906 0.967414 49.5423C-5.43635 16.2729 21.796 3.05733 28.5563 2.18793Z" fill="#356B80"/>
<path fill-rule="evenodd" clip-rule="evenodd" d="M94.8519 0.529191L95.1267 0.551691L95.2875 0.776691C108.379 18.8109 93.9063 40.7934 81.5756 53.5455L80.6237 52.8228C85.6751 44.2215 96.7432 19.9386 89.0202 8.44379C78.0141 7.80569 67.6312 12.5892 61.1179 21.4713C56.9385 22.1805 52.9541 23.7807 49.2578 25.8732L49.4213 25.4628C55.8528 9.30149 72.2722 -1.43371 90.457 0.155691C90.457 0.155691 92.8987 0.341091 94.8519 0.529191ZM71.8349 68.8815C75.831 71.253 79.2094 72.0315 84.1458 72.459C98.2698 73.7028 107.818 68.3838 114.426 61.8588C119.104 57.2436 122.435 51.7788 125.766 46.089C125.766 46.089 117.112 80.2611 84.056 80.2611C76.8332 80.2611 70.8327 78.4467 65.2793 74.6253C67.6761 72.9315 69.87 71.0028 71.8349 68.8815Z" fill="#95C11F"/>
</g>
<defs>
<clipPath id="clip0_238_22041">
<rect width="317" height="81" fill="white"/>
</clipPath>
</defs>
</svg>
