<svg width="454" height="61" viewBox="0 0 454 61" fill="none" xmlns="http://www.w3.org/2000/svg">
<g clip-path="url(#clip0_371_841)">
<path d="M0 0V60.15L52.08 30.07L0 0Z" fill="#DF3832"/>
<path d="M13.94 36.0899L0 60.1499L52.08 30.0699L13.94 36.0899Z" fill="#5F0611"/>
<path d="M0 0V60.15L13.92 36.09L0 0Z" fill="#AF1E27"/>
<path d="M74.0811 25.7101V51.6901H66.8711V8.27006L88.5911 29.9801L110.371 8.27006V51.6901H103.041V25.7101L88.5911 40.2401L74.0811 25.7101ZM144.611 8.27006C147.466 8.22152 150.301 8.76313 152.937 9.86097C155.573 10.9588 157.954 12.5892 159.931 14.6501C162.002 16.6288 163.642 19.0131 164.75 21.6541C165.858 24.2952 166.41 27.1363 166.371 30.0001C166.425 32.8616 165.88 35.7028 164.771 38.3412C163.662 40.9796 162.014 43.3568 159.931 45.3201C157.926 47.3476 155.539 48.9573 152.907 50.0559C150.276 51.1544 147.453 51.7201 144.601 51.7201C141.75 51.7201 138.926 51.1544 136.295 50.0559C133.664 48.9573 131.276 47.3476 129.271 45.3201C127.209 43.3434 125.578 40.9626 124.478 38.3265C123.379 35.6904 122.835 32.8559 122.881 30.0001C122.844 27.144 123.391 24.3105 124.49 21.6741C125.589 19.0377 127.216 16.6541 129.271 14.6701C131.246 12.6009 133.629 10.9651 136.27 9.86675C138.911 8.76839 141.752 8.23145 144.611 8.29006M144.611 15.5501C142.709 15.5368 140.823 15.9013 139.063 16.6226C137.302 17.3438 135.703 18.4074 134.357 19.7516C133.011 21.0958 131.945 22.6938 131.221 24.4531C130.498 26.2124 130.13 28.0978 130.141 30.0001C130.12 31.9045 130.479 33.7939 131.198 35.5574C131.917 37.3209 132.982 38.9229 134.329 40.2691C135.676 41.6154 137.279 42.6787 139.043 43.3967C140.807 44.1147 142.697 44.4728 144.601 44.4501C146.496 44.4501 148.373 44.076 150.123 43.3492C151.874 42.6224 153.463 41.5572 154.801 40.2147C156.139 38.8723 157.199 37.2789 157.919 35.5261C158.64 33.7732 159.008 31.8953 159.001 30.0001C159.027 28.0982 158.664 26.2112 157.933 24.4552C157.202 22.6993 156.119 21.1116 154.751 19.7901C153.433 18.424 151.848 17.343 150.096 16.6137C148.343 15.8844 146.459 15.5224 144.561 15.5501M178.901 8.27006H186.081V44.4301H207.811V51.6901H178.901V8.27006ZM236.891 8.27006C239.795 8.24607 242.674 8.8143 245.351 9.94006C247.941 11.0529 250.293 12.6517 252.281 14.6501L247.091 19.7701C245.775 18.399 244.189 17.3146 242.434 16.585C240.679 15.8554 238.792 15.4962 236.891 15.5301C234.99 15.5221 233.105 15.8911 231.347 16.6157C229.589 17.3403 227.992 18.4062 226.649 19.7517C225.305 21.0972 224.241 22.6957 223.519 24.4548C222.797 26.2138 222.431 28.0986 222.441 30.0001C222.454 32.4208 223.071 34.7999 224.237 36.9214C225.403 39.0429 227.081 40.8395 229.117 42.1479C231.154 43.4564 233.485 44.2352 235.899 44.4137C238.314 44.5922 240.734 44.1647 242.941 43.1701C244.786 42.318 246.434 41.0922 247.781 39.5701V33.6101H236.891V26.4101H255.001V41.9401C253.998 43.4023 252.831 44.7445 251.521 45.9401C250.225 47.1431 248.788 48.1841 247.241 49.0401C245.685 49.9182 244.021 50.5905 242.291 51.0401C238.632 51.992 234.786 51.9665 231.14 50.9663C227.493 49.966 224.173 48.0259 221.511 45.3401C219.458 43.3555 217.837 40.9691 216.747 38.3297C215.658 35.6903 215.125 32.8548 215.181 30.0001C215.142 27.1455 215.687 24.3131 216.782 21.6769C217.877 19.0406 219.5 16.6562 221.551 14.6701C223.532 12.6087 225.916 10.9781 228.556 9.8803C231.195 8.78252 234.033 8.24116 236.891 8.29006M296.221 51.6901L287.821 37.2201H275.561V51.6901H268.381V8.27006H290.091C291.992 8.2423 293.878 8.6052 295.632 9.33627C297.387 10.0673 298.973 11.151 300.291 12.5201C301.657 13.8389 302.739 15.4233 303.47 17.1757C304.2 18.9281 304.565 20.8115 304.541 22.7101C304.57 25.6413 303.682 28.5083 302.001 30.9101C300.442 33.2439 298.215 35.0528 295.611 36.1001L304.551 51.7001L296.221 51.6901ZM290.081 15.5301H275.561V29.9201L290.091 29.9801C291.037 29.991 291.975 29.8075 292.847 29.4411C293.719 29.0748 294.507 28.5332 295.161 27.8501C295.834 27.1801 296.368 26.3838 296.733 25.5069C297.097 24.63 297.285 23.6897 297.285 22.7401C297.285 21.7904 297.097 20.8502 296.733 19.9732C296.368 19.0963 295.834 18.3 295.161 17.6301C294.502 16.9548 293.713 16.4197 292.842 16.0571C291.97 15.6945 291.035 15.5118 290.091 15.5201M336.731 8.27006C339.588 8.22073 342.424 8.76195 345.062 9.8598C347.7 10.9576 350.083 12.5885 352.061 14.6501C354.138 16.6248 355.784 19.008 356.896 21.6496C358.008 24.2912 358.561 27.1343 358.521 30.0001C358.577 32.8636 358.03 35.7068 356.917 38.3458C355.805 40.9849 354.15 43.3608 352.061 45.3201C350.056 47.3461 347.669 48.9545 345.039 50.0522C342.408 51.1498 339.586 51.715 336.736 51.715C333.886 51.715 331.064 51.1498 328.433 50.0522C325.803 48.9545 323.416 47.3461 321.411 45.3201C319.344 43.3466 317.707 40.9668 316.604 38.3303C315.501 35.6939 314.955 32.8577 315.001 30.0001C314.96 27.1444 315.505 24.3107 316.603 21.6739C317.7 19.0372 319.326 16.6535 321.381 14.6701C323.353 12.6024 325.733 10.9674 328.37 9.8691C331.008 8.77075 333.845 8.23301 336.701 8.29006M336.701 15.5501C334.804 15.5461 332.924 15.9174 331.171 16.6425C329.418 17.3676 327.825 18.4323 326.485 19.7753C325.145 21.1183 324.084 22.7131 323.362 24.4679C322.641 26.2226 322.273 28.1028 322.281 30.0001C322.262 31.9029 322.623 33.7903 323.343 35.5519C324.062 37.3135 325.126 38.9139 326.472 40.2594C327.817 41.605 329.418 42.6687 331.179 43.3882C332.941 44.1078 334.828 44.4688 336.731 44.4501C338.63 44.454 340.511 44.083 342.266 43.3582C344.021 42.6334 345.615 41.5692 346.958 40.2266C348.3 38.884 349.364 37.2894 350.089 35.5345C350.814 33.7796 351.185 31.8988 351.181 30.0001C351.21 28.097 350.846 26.2085 350.113 24.4519C349.38 22.6954 348.294 21.1086 346.921 19.7901C345.602 18.4228 344.016 17.341 342.261 16.6117C340.507 15.8823 338.621 15.521 336.721 15.5501M405.161 33.6101C405.198 36.0001 404.745 38.3723 403.83 40.5805C402.915 42.7887 401.557 44.7863 399.841 46.4501C397.314 48.9883 394.088 50.7171 390.575 51.4165C387.062 52.1159 383.42 51.7541 380.113 50.3773C376.806 49.0005 373.984 46.6709 372.005 43.6851C370.026 40.6992 368.98 37.1921 369.001 33.6101V8.27006H376.191V33.6101C376.165 35.029 376.43 36.4381 376.97 37.7505C377.51 39.0628 378.314 40.2505 379.331 41.2401C380.328 42.271 381.526 43.0868 382.85 43.6372C384.174 44.1875 385.597 44.4608 387.031 44.4401C388.455 44.4619 389.868 44.1889 391.181 43.6382C392.494 43.0875 393.679 42.271 394.661 41.2401C395.702 40.2623 396.529 39.0796 397.09 37.7664C397.651 36.4532 397.934 35.038 397.921 33.6101V8.27006H405.181L405.161 33.6101ZM424.051 37.2201V51.6901H416.861V8.27006H438.571C440.47 8.24308 442.354 8.60638 444.107 9.33744C445.86 10.0685 447.444 11.1518 448.761 12.5201C450.129 13.8496 451.21 15.4446 451.94 17.2072C452.669 18.9698 453.03 20.8628 453.001 22.7701C453.02 24.673 452.654 26.5601 451.926 28.3181C451.197 30.076 450.121 31.6686 448.761 33.0001C447.433 34.3496 445.846 35.4158 444.094 36.1342C442.343 36.8527 440.464 37.2085 438.571 37.1801L424.051 37.2201ZM424.051 15.5301V30.0001H438.571C439.514 30.0112 440.449 29.8278 441.318 29.4613C442.187 29.0948 442.971 28.5531 443.621 27.8701C444.306 27.2153 444.849 26.4263 445.216 25.5522C445.582 24.6781 445.765 23.7378 445.751 22.7901C445.768 21.8339 445.588 20.8846 445.223 20.0005C444.859 19.1165 444.317 18.3166 443.631 17.6501C442.978 16.972 442.193 16.435 441.325 16.0721C440.456 15.7092 439.522 15.5281 438.581 15.5401L424.051 15.5301Z" fill="#ED1C29"/>
</g>
<defs>
<clipPath id="clip0_371_841">
<rect width="453.03" height="60.15" fill="white"/>
</clipPath>
</defs>
</svg>
